{"title":"Scrubs S09E01-03.HDTV.ReEnc.x264.Dragon7787","uid":5220516,"size":252486822,"categoryP":"video","categoryS":"tv_shows","magnet":"?xt=urn:btih:b4df8736b43bc6b24e86e53cff5ea2b6ae2c27b4&amp;dn=Scrubs+S09E01-03.HDTV.ReEnc.x264.Dragon7787&amp;tr=udp%3A%2F%2Ftracker.openbittorrent.com%3A80&amp;tr=udp%3A%2F%2Fopen.demonii.com%3A1337&amp;tr=udp%3A%2F%2Ftracker.coppersurfer.tk%3A6969&amp;tr=udp%3A%2F%2Fexodus.desync.com%3A6969","seeders":0,"leechers":0,"uploader":"dragon7787","files":-1,"time":1260911230,"description":"Well,here i start a series of re-encoded TV Shows\nNext Additions wil be vampire diaries and cougar town :) &lt;a href=&quot;\nhttp://www.imdb.com/title/tt0285403/&quot; rel=&quot;nofollow&quot; target=&quot;_NEW&quot;&gt;\nhttp://www.imdb.com/title/tt0285403/&lt;/a&gt;\n\niNFO:\n\nVideo\nID                               : 0\nFormat                           : AVC\nFormat/Info                      : Advanced Video Codec\nFormat profile                   : &lt;a class=&quot;__cf_email__&quot; href=&quot;/cdn-cgi/l/email-protection&quot; data-cfemail=&quot;105d71797e505c253e21&quot;&gt;[email&amp;#160;protected]&lt;/a&gt;&lt;script cf-hash='f9e31' type=&quot;text/javascript&quot;&gt;\n/* &lt;![CDATA[ */!function(){try{var t=&quot;currentScript&quot;in document?document.currentScript:function(){for(var t=document.getElementsByTagName(&quot;script&quot;),e=t.length;e--;)if(t[e].getAttribute(&quot;cf-hash&quot;))return t[e]}();if(t&amp;&amp;t.previousSibling){var e,r,n,i,c=t.previousSibling,a=c.getAttribute(&quot;data-cfemail&quot;);if(a){for(e=&quot;&quot;,r=parseInt(a.substr(0,2),16),n=2;a.length-n;n+=2)i=parseInt(a.substr(n,2),16)^r,e+=String.fromCharCode(i);e=document.createTextNode(e),c.parentNode.replaceChild(e,c)}}}catch(u){}}();/* ]]&gt; */&lt;/script&gt;\nFormat settings, CABAC           : Yes\nFormat settings, ReFrames        : 1 frame\nCodec ID                         : H264\nDuration                         : 21mn 42s\nBit rate                         : 422 Kbps\nNominal bit rate                 : 420 Kbps\nWidth                            : 624 pixels\nHeight                           : 352 pixels\nDisplay aspect ratio             : 16:9\nFrame rate                       : 23.976 fps\nResolution                       : 24 bits\nColorimetry                      : 4:2:0\nScan type                        : Progressive\nBits/(Pixel*Frame)               : 0.080\nStream size                      : 65.5 MiB (80%)\nWriting library                  : x264 core 54 svn-exportÃƒÆ’Ã‚Â©\n\nAudio\nID                               : 1\nFormat                           : MPEG Audio\nFormat version                   : Version 2\nFormat profile                   : Layer 3\nCodec ID                         : 55\nCodec ID/Hint                    : MP3\nDuration                         : 43mn 25s\nBit rate mode                    : Constant\nBit rate                         : 96.0 Kbps\nChannel(s)                       : 2 channels\nSampling rate                    : 22.05 KHz\nResolution                       : 16 bits\nStream size                      : 14.9 MiB (18%)\nAlignment                        : Aligned on interleaves\nInterleave, duration             : 26 ms (0.63 video frame)\nInterleave, preload duration     : 522 ms\n\n\nThis iNFO is for all the encodes..\nWill be Updated weekly! &lt;a href=&quot;\nhttp://thepiratebay.se/user/dragon7787&quot; rel=&quot;nofollow&quot; target=&quot;_NEW&quot;&gt;\nhttp://thepiratebay.se/user/dragon7787&lt;/a&gt;","torrent":{"xt":"urn:btih:b4df8736b43bc6b24e86e53cff5ea2b6ae2c27b4","amp;dn":"Scrubs+S09E01-03.HDTV.ReEnc.x264.Dragon7787","amp;tr":["udp%3A%2F%2Ftracker.openbittorrent.com%3A80","udp%3A%2F%2Fopen.demonii.com%3A1337","udp%3A%2F%2Ftracker.coppersurfer.tk%3A6969","udp%3A%2F%2Fexodus.desync.com%3A6969"],"infoHash":"b4df8736b43bc6b24e86e53cff5ea2b6ae2c27b4","infoHashBuffer":{"type":"Buffer","data":[180,223,135,54,180,59,198,178,78,134,229,60,255,94,162,182,174,44,39,180]},"announce":[],"urlList":[]}}